<?xml version="1.0" encoding="utf-8"?>
<!-- Uploaded to: SVG Repo, www.svgrepo.com, Generator: SVG Repo Mixer Tools -->
<svg width="800px" height="800px" viewBox="0 0 1024 1024" class="icon"  version="1.1" xmlns="http://www.w3.org/2000/svg"><path d="M85.333333 597.333333V170.666667c0-46.933333 38.4-85.333333 85.333334-85.333334h597.333333c46.933333 0 85.333333 38.4 85.333333 85.333334v426.666666c0 46.933333-38.4 85.333333-85.333333 85.333334H170.666667c-46.933333 0-85.333333-38.4-85.333334-85.333334z" fill="#546E7A" /><path d="M768 149.333333H170.666667c-12.8 0-21.333333 8.533333-21.333334 21.333334v426.666666c0 12.8 8.533333 21.333333 21.333334 21.333334h597.333333c12.8 0 21.333333-8.533333 21.333333-21.333334V170.666667c0-12.8-8.533333-21.333333-21.333333-21.333334z" fill="#BBDEFB" /><path d="M810.666667 704H128c-46.933333 0-85.333333-38.4-85.333333-85.333333h853.333333c0 46.933333-38.4 85.333333-85.333333 85.333333z" fill="#37474F" /><path d="M512 853.333333V341.333333c0-46.933333 38.4-85.333333 85.333333-85.333333h256c46.933333 0 85.333333 38.4 85.333334 85.333333v512c0 46.933333-38.4 85.333333-85.333334 85.333334H597.333333c-46.933333 0-85.333333-38.4-85.333333-85.333334z" fill="#E38939" /><path d="M853.333333 320H597.333333c-12.8 0-21.333333 8.533333-21.333333 21.333333v469.333334c0 12.8 8.533333 21.333333 21.333333 21.333333h256c12.8 0 21.333333-8.533333 21.333334-21.333333V341.333333c0-12.8-8.533333-21.333333-21.333334-21.333333z" fill="#FFF3E0" /><path d="M725.333333 885.333333m-32 0a32 32 0 1 0 64 0 32 32 0 1 0-64 0Z" fill="#A6642A" /></svg>