<?xml version="1.0" encoding="UTF-8"?>
<!DOCTYPE svg PUBLIC "-//W3C//DTD SVG 1.1//EN" "http://www.w3.org/Graphics/SVG/1.1/DTD/svg11.dtd">
<!-- Uploaded to: SVG Repo, www.svgrepo.com, Generator: SVG Repo Mixer Tools -->
<svg width="800px" height="800px" viewBox="0 0 67733.32 67733.32" style="shape-rendering:geometricPrecision; text-rendering:geometricPrecision; image-rendering:optimizeQuality; fill-rule:evenodd; clip-rule:evenodd" version="1.1" xml:space="preserve" xmlns="http://www.w3.org/2000/svg" xmlns:xlink="http://www.w3.org/1999/xlink" xmlns:xodm="http://www.corel.com/coreldraw/odm/2003">

<defs>

<style type="text/css">
   <![CDATA[
    .fil0 {fill:none}
    .fil3 {fill:#484B60;fill-rule:nonzero}
    .fil1 {fill:#DDCAC6;fill-rule:nonzero}
    .fil4 {fill:#DF8C9A;fill-rule:nonzero}
    .fil2 {fill:white;fill-rule:nonzero}
   ]]>
  </style>

</defs>

<g id="Layer_x0020_1">

<rect class="fil0" height="67733.32" width="67733.32" x="-0" y="-0"/>

<g id="_2730824954160">

<path class="fil1" d="M17806.12 52936.92c-45.48,182.77 -86.73,359.48 -123.65,529.9 -220.45,1015.4 -891.32,4105.36 1434.53,6057.24 591.08,496 1607.89,1087.19 3095.59,1087.19 691.01,0 2050.08,0.21 6026.92,-1951.12 1747.45,415.23 3541.78,625.07 5355.28,625.07 1813.4,0 3607.84,-209.84 5355.29,-625.07 3976.84,1951.33 5335.91,1951.12 6026.81,1951.12 1487.92,0 2504.73,-591.19 3095.7,-1087.19 2325.85,-1951.88 1654.98,-5041.84 1434.42,-6057.24 -36.92,-170.42 -78.17,-347.02 -123.54,-529.9 3826.77,-3760.93 5971.81,-8731.95 5971.81,-14019.24 0,-2976.16 -704.87,-5883.89 -2009.26,-8528.73 1746.69,-2846.12 2543.7,-7477.48 -730.54,-11569.52 -13.1,-263 -47.2,-526.87 -102.75,-789.54 -274.26,-1296.6 -1037.06,-2408.91 -2147.85,-3131.75 -784.35,-510.52 -1689.96,-787.16 -2623.62,-802.43l-1730.02 -2051.27c-1299.19,-1540.65 -2998.03,-2650.25 -4912.66,-3208.84 -2481.66,-724.04 -5006.31,-1091.09 -7503.79,-1091.09 -2497.58,0 -5022.23,367.05 -7503.89,1091.09 -1914.53,558.59 -3613.25,1668.09 -4912.66,3208.84l-1733.81 2055.93c-880.17,41.04 -1730.67,314.65 -2472.9,797.66 -1323.01,861.11 -2099.45,2250.28 -2233.17,3712 -3498.05,4156.9 -2693.35,8901.4 -897.06,11781.2 -1303.2,2642.45 -2006.99,5548.23 -2006.99,8526.45 0,5287.29 2145.04,10258.31 5971.81,14019.24z"/>

<g>

<path class="fil2" d="M51697.41 38295.09c0,-5309.92 -2781.05,-10021.4 -7074.7,-12968.54l438.08 -673.04 4942.33 3357.83c0,0 3520.24,-4508.47 -1538.26,-8587.84l374.3 -575.05c228.9,-351.68 129.39,-822.35 -222.29,-1051.24 -351.67,-228.9 -822.24,-129.39 -1051.13,222.29l-189.27 290.71 -482.69 -325.04c-460.49,-310.1 -875.62,-682.67 -1233.47,-1107l-2317.19 -2747.59c-754.68,-894.9 -1753.63,-1556.24 -2877.41,-1883.99 -4218.08,-1230.44 -8436.26,-1230.44 -12654.22,0 -1123.79,327.75 -2122.74,989.09 -2877.52,1883.99l-2316.98 2747.59c-357.96,424.33 -773.09,796.9 -1233.58,1107l-380.7 256.4 -144.54 -222.07c-228.9,-351.68 -699.57,-451.19 -1051.25,-222.29 -351.57,228.89 -451.07,699.56 -222.18,1051.24l323.53 497.09c-5203.7,4095.29 -1673.5,8608.09 -1673.5,8608.09l5045.18 -3427.77 477.39 733.34c-4351.25,2942.27 -7177.56,7684.29 -7177.56,13035.89 0,5105.18 2573.05,9654.68 6587.35,12617.3 -577.43,1650.66 -1380.4,4288.02 -805.35,4770.71 675.96,567.26 4458.77,-1334.05 5970.08,-2131.28 1818.15,586.52 3771,909.07 5806.68,909.07 2035.68,0 3988.64,-322.55 5806.8,-909.07 1511.3,797.23 5294.11,2698.54 5970.07,2131.28 574.94,-482.69 -227.92,-3120.05 -805.35,-4770.71 4014.3,-2962.62 6587.35,-7512.12 6587.35,-12617.3zm-27160.27 -14623.31l0 0 5428.48 -3688.17c0,0 -286.28,-486.7 -852.67,-1051.79l10065.26 0c-601.8,591.62 -905.83,1109.6 -905.83,1109.6l5531.34 3757.91 -470.67 723.06c-2674.4,-1516.61 -5822.82,-2393.31 -9194.51,-2393.31 -3326.53,0 -6436.74,852.12 -9087.96,2331.59l-513.44 -788.89z"/>

<path class="fil2" d="M34138.54 11323.66c2109.09,0 4218.18,307.72 6327.17,922.94 1123.78,327.86 2122.73,989.09 2877.41,1884.1l2317.19 2747.48c357.85,424.33 772.98,796.9 1233.47,1107.11l482.69 324.93 189.27 -290.71c145.52,-223.7 388.92,-345.4 637.42,-345.4 142.05,0 285.73,39.84 413.71,123.11 351.68,228.89 451.3,699.56 222.29,1051.13l-374.3 575.16c5058.5,4079.37 1538.26,8587.84 1538.26,8587.84l-4942.33 -3357.83 -438.08 673.04c4293.76,2947.14 7074.7,7658.62 7074.7,12968.54 0,5105.18 -2573.05,9654.68 -6587.35,12617.3 577.43,1650.66 1380.29,4288.02 805.35,4770.71 -85.54,71.79 -220.56,103.95 -394.66,103.95 -1201.96,0 -4255.32,-1538.92 -5575.41,-2235.13 -1818.16,586.42 -3771.12,908.97 -5806.8,908.97 -2035.68,0 -3988.53,-322.55 -5806.68,-908.97 -1320.2,696.32 -4373.56,2235.13 -5575.42,2235.13 -173.99,0 -309.12,-32.27 -394.66,-103.95 -575.05,-482.69 227.92,-3120.05 805.35,-4770.71 -4014.3,-2962.62 -6587.35,-7512.12 -6587.35,-12617.3 0,-5351.6 2826.31,-10093.62 7177.56,-13035.89l-477.28 -733.34 -5045.29 3427.66c0,0 -3530.2,-4512.69 1673.5,-8607.98l-323.53 -497.2c-228.89,-351.57 -129.39,-822.24 222.18,-1051.13 128.09,-83.27 271.66,-123.11 413.83,-123.11 248.38,0 491.79,121.7 637.42,345.4l144.54 222.07 380.7 -256.29c460.49,-310.21 875.62,-682.78 1233.58,-1107.11l2317.08 -2747.48c754.68,-895.01 1753.52,-1556.24 2877.31,-1884.1 2109.09,-615.22 4218.07,-922.94 6327.16,-922.94zm-9087.96 13137.02l0 0c2651.22,-1479.47 5761.43,-2331.59 9087.96,-2331.59 3371.69,0 6520,876.7 9194.51,2393.42l470.56 -723.17 -5531.34 -3758.01c0,0 304.25,-517.88 905.94,-1109.5l-10065.26 0c566.39,565.09 852.67,1051.79 852.67,1051.79l-5428.48 3688.17 513.44 788.89zm9087.96 -17338.63l0 0c-2497.47,0 -5022.23,367.05 -7503.79,1090.98 -1914.63,558.59 -3613.36,1668.08 -4912.66,3208.84l-1733.92 2056.04c-880.16,40.92 -1730.66,314.64 -2472.89,797.55 -1322.91,861.11 -2099.46,2250.28 -2233.07,3712 -3498.04,4156.89 -2693.45,8901.4 -897.16,11781.2 -1303.2,2642.45 -2006.88,5548.23 -2006.88,8526.44 0,5287.29 2145.03,10258.31 5971.69,14019.36 -45.36,182.66 -86.62,359.36 -123.65,529.79 -220.34,1015.4 -891.32,4105.36 1434.54,6057.34 591.18,496.01 1607.99,1087.08 3095.69,1087.08 691.02,0 2050.09,0.22 6026.92,-1951.01 1747.45,415.13 3541.79,624.97 5355.18,624.97 1813.5,0 3607.84,-209.84 5355.29,-624.97 3976.94,1951.23 5335.91,1951.01 6026.92,1951.01 1487.81,0 2504.62,-591.18 3095.58,-1087.08 2325.86,-1951.98 1654.99,-5041.94 1434.54,-6057.34 -37.03,-170.43 -78.17,-347.02 -123.65,-529.79 3826.77,-3761.05 5971.81,-8732.07 5971.81,-14019.36 0,-2976.05 -704.88,-5883.88 -2009.27,-8528.72 1746.7,-2846.12 2543.82,-7477.48 -730.42,-11569.41 -13.1,-263.11 -47.32,-526.98 -102.86,-789.65 -274.26,-1296.6 -1037.06,-2408.91 -2147.75,-3131.75 -784.45,-510.52 -1689.95,-787.16 -2623.72,-802.43l-1729.91 -2051.27c-1299.19,-1540.65 -2998.03,-2650.25 -4912.66,-3208.84 -2481.66,-723.93 -5006.32,-1090.98 -7503.9,-1090.98z"/>

</g>

<g>

<path class="fil3" d="M26878.71 28588.13l-67.57 44.07c-333.05,216.66 -778.71,122.46 -995.48,-210.49l-6253 -9607.14c-216.76,-332.95 -122.46,-778.61 210.6,-995.37l67.56 -43.96c333.06,-216.77 778.61,-122.57 995.38,210.48l6252.99 9607.04c216.77,332.94 122.57,778.6 -210.48,995.37z"/>

<path class="fil3" d="M42118.42 27707.42l67.67 43.96c332.95,216.77 778.61,122.57 995.37,-210.49l5679.68 -8726.32c216.77,-332.95 122.57,-778.61 -210.48,-995.37l-67.57 -43.96c-333.05,-216.77 -778.71,-122.57 -995.37,210.48l-5679.79 8726.33c-216.77,332.94 -122.46,778.6 210.49,995.37z"/>

<path class="fil3" d="M23665.53 49564.8c0,0 -2152.18,5406.07 -1303.74,6118.3 848.55,712.02 6596.01,-2467.37 6596.01,-2467.37l-5292.27 -3650.93z"/>

<path class="fil3" d="M44611.56 49564.8c0,0 2152.29,5406.07 1303.85,6118.3 -848.44,712.02 -6596.01,-2467.37 -6596.01,-2467.37l5292.16 -3650.93z"/>

<path class="fil4" d="M51697.41 38295.09c0,8928.15 -7861.32,16165.91 -17558.87,16165.91 -9697.33,0 -17558.76,-7237.76 -17558.76,-16165.91 0,-8928.25 7861.43,-16166.01 17558.76,-16166.01 9697.55,0 17558.87,7237.76 17558.87,16166.01z"/>

<path class="fil2" d="M47878.33 38295.09c0,6986.24 -6151.43,12649.79 -13739.79,12649.79 -7588.24,0 -13739.79,-5663.55 -13739.79,-12649.79 0,-6986.34 6151.55,-12649.89 13739.79,-12649.89 7588.36,0 13739.79,5663.55 13739.79,12649.89z"/>

<path class="fil3" d="M35498.69 38295.09c0,691.56 -608.94,1252.1 -1360.15,1252.1 -751.1,0 -1360.04,-560.54 -1360.04,-1252.1 0,-691.66 608.94,-1252.2 1360.04,-1252.2 751.21,0 1360.15,560.54 1360.15,1252.2z"/>

<path class="fil4" d="M18234.78 27953.64l11730.85 -7970.02c0,0 -3142.36,-5376.19 -9356.92,-1154 -6214.56,4222.19 -2373.93,9124.02 -2373.93,9124.02z"/>

<path class="fil4" d="M50003.12 28011.35l-11730.74 -7969.92c0,0 3181.55,-5434 9396.11,-1211.81 6214.45,4222.19 2334.63,9181.73 2334.63,9181.73z"/>

<polygon class="fil3" points="34520.43,40680.94 33756.45,40680.94 33756.45,29417.3 34520.43,29417.3 "/>

<polygon class="fil3" points="26484.15,43673.66 25893.94,42691.06 35750.98,36771.99 36341.07,37754.58 "/>

<g>

<path class="fil3" d="M34168.86 27855.43l-60.53 0c-297.97,0 -539.53,-241.56 -539.53,-539.53l0 -581.11c0,-297.98 241.56,-539.54 539.53,-539.54l60.53 0c297.97,0 539.53,241.56 539.53,539.54l0 581.11c0,297.97 -241.56,539.53 -539.53,539.53z"/>

<path class="fil3" d="M34168.86 50394.84l-60.53 0c-297.97,0 -539.53,-241.56 -539.53,-539.54l0 -581.11c0,-297.97 241.56,-539.53 539.53,-539.53l60.53 0c297.97,0 539.53,241.56 539.53,539.53l0 581.11c0,297.98 -241.56,539.54 -539.53,539.54z"/>

</g>

<g>

<path class="fil3" d="M44578.21 38325.3l0 -60.52c0,-297.98 241.56,-539.54 539.54,-539.54l581.11 0c297.97,0 539.53,241.56 539.53,539.54l0 60.52c0,297.98 -241.56,539.54 -539.53,539.54l-581.11 0c-297.98,0 -539.54,-241.56 -539.54,-539.54z"/>

<path class="fil3" d="M22038.81 38325.3l0 -60.52c0,-297.98 241.56,-539.54 539.53,-539.54l581.11 0c297.98,0 539.54,241.56 539.54,539.54l0 60.52c0,297.98 -241.56,539.54 -539.54,539.54l-581.11 0c-297.97,0 -539.53,-241.56 -539.53,-539.54z"/>

</g>

<g>

<path class="fil3" d="M38975.3 29043.43l-53.7 -27.83c-264.52,-137.4 -367.6,-463.09 -230.31,-727.5l267.66 -515.82c137.29,-264.41 463.09,-367.49 727.5,-230.3l53.71 27.93c264.51,137.3 367.59,462.99 230.3,727.5l-267.66 515.72c-137.29,264.51 -463.09,367.59 -727.5,230.3z"/>

<path class="fil3" d="M28590.75 49048.11l-53.7 -27.93c-264.52,-137.29 -367.6,-462.99 -230.3,-727.5l267.65 -515.72c137.29,-264.4 463.09,-367.59 727.5,-230.3l53.71 27.83c264.51,137.4 367.59,463.09 230.3,727.5l-267.66 515.82c-137.29,264.41 -462.98,367.49 -727.5,230.3z"/>

</g>

<g>

<path class="fil3" d="M43390.22 43131.74l27.93 -53.7c137.3,-264.52 462.99,-367.59 727.5,-230.3l515.61 267.76c264.52,137.19 367.59,462.99 230.3,727.39l-27.83 53.71c-137.29,264.52 -462.98,367.59 -727.5,230.3l-515.71 -267.66c-264.52,-137.29 -367.59,-463.09 -230.3,-727.5z"/>

<path class="fil3" d="M23385.53 32747.2l27.94 -53.71c137.29,-264.52 462.98,-367.59 727.5,-230.3l515.71 267.76c264.52,137.19 367.6,462.99 230.3,727.4l-27.93 53.7c-137.29,264.52 -462.99,367.59 -727.39,230.3l-515.83 -267.65c-264.4,-137.3 -367.48,-463.1 -230.3,-727.5z"/>

</g>

<g>

<path class="fil3" d="M28193.71 29713.43l49.8 -34.32c245.46,-169.02 307.5,-504.99 138.49,-750.45l-329.48 -478.58c-169.02,-245.46 -505,-307.39 -750.46,-138.37l-49.81 34.21c-245.46,169.02 -307.39,505 -138.48,750.45l329.48 478.58c169.02,245.46 505,307.5 750.46,138.48z"/>

<path class="fil3" d="M40975.14 48278.39l49.81 -34.22c245.46,-169.02 307.39,-504.99 138.48,-750.45l-329.59 -478.58c-168.91,-245.46 -504.88,-307.39 -750.34,-138.48l-49.81 34.32c-245.46,169.02 -307.5,504.99 -138.48,750.45l329.48 478.58c169.01,245.46 504.99,307.39 750.45,138.38z"/>

</g>

<g>

<path class="fil3" d="M25215.71 43714.37l-31.19 -51.75c-153.96,-255.21 -485.61,-337.28 -740.81,-183.31l-497.42 300.24c-255.2,153.97 -337.17,485.62 -183.31,740.71l31.29 51.87c153.97,255.09 485.62,337.17 740.71,183.2l497.53 -300.25c255.2,-153.96 337.16,-485.61 183.2,-740.71z"/>

<path class="fil3" d="M44514.11 32069.83l-31.18 -51.87c-153.97,-255.09 -485.61,-337.17 -740.82,-183.2l-497.41 300.25c-255.21,153.97 -337.17,485.61 -183.21,740.71l31.19 51.75c153.97,255.21 485.61,337.28 740.82,183.31l497.41 -300.24c255.21,-153.97 337.28,-485.62 183.2,-740.71z"/>

</g>

<path class="fil3" d="M48086.33 19248.43l-1405.85 -946.44c-489.83,-329.69 -931.49,-726.2 -1312.29,-1177.6l-2317.2 -2747.58c-715.8,-848.67 -1646.54,-1458.47 -2692.48,-1763.59 -4127.44,-1203.8 -8312.71,-1203.8 -12440.16,0 -1045.61,305.12 -1976.67,914.92 -2692.47,1763.59l-2316.77 2747.58c-380.48,451.08 -821.81,847.15 -1312.29,1177.6l-1405.85 946.44 -426.82 -633.41 1405.96 -946.33c431.58,-290.93 820.29,-640.12 1154.86,-1036.62l2316.76 -2747.7c813.58,-964.19 1872.62,-1657.26 3062.56,-2004.5 4269.51,-1245.16 8598.78,-1245.16 12868.28,0 1190.38,347.24 2249.31,1040.31 3062.57,2004.5l2317.19 2747.7c334.9,397.26 723.6,746.01 1154.86,1036.62l1405.85 946.33 -426.71 633.41z"/>

</g>

</g>

</g>

</svg>